<svg xmlns="http://www.w3.org/2000/svg" viewBox="0 0 186.69 51.26"><defs><style>.cls-1{fill:#999;}.cls-2{fill:#69d2e7;}</style></defs><title>Asset 3</title><g id="Layer_2" data-name="Layer 2"><g id="Layer_1-2" data-name="Layer 1"><path class="cls-1" d="M14,18.65,1.15,1h9.94l7.78,11.45L27,1h9.5L23.83,18.22l14.26,20H28.22L18.79,24.48,9.65,38.23H0Z"/><path class="cls-2" d="M52.2,1V6h.14A14.56,14.56,0,0,1,57.2,1.58,13.17,13.17,0,0,1,63.72,0a15,15,0,0,1,6.44,1.37,9.05,9.05,0,0,1,4.43,4.82,15.86,15.86,0,0,1,4.5-4.32A12,12,0,0,1,85.82,0a19.9,19.9,0,0,1,5.47.72A11,11,0,0,1,95.62,3a10.57,10.57,0,0,1,2.81,4.14,16.79,16.79,0,0,1,1,6.16V38.23H89.21V17.14q0-1.87-.14-3.53a7.5,7.5,0,0,0-.79-2.88,4.8,4.8,0,0,0-1.91-1.94,6.91,6.91,0,0,0-3.42-.72,6.55,6.55,0,0,0-3.49.83,6,6,0,0,0-2.09,2.16,8.65,8.65,0,0,0-1,3,23.05,23.05,0,0,0-.25,3.42V38.23H65.88V17.35q0-1.66-.07-3.28a9.2,9.2,0,0,0-.61-3,4.6,4.6,0,0,0-1.8-2.2,6.8,6.8,0,0,0-3.71-.83,7.67,7.67,0,0,0-1.91.32,6.34,6.34,0,0,0-2.3,1.22,7.16,7.16,0,0,0-1.91,2.59,10.51,10.51,0,0,0-.79,4.43v21.6H42.55V1Z"/><path class="cls-2" d="M107.06,12.46a11.88,11.88,0,0,1,1.8-6,12.25,12.25,0,0,1,4-3.82A17.58,17.58,0,0,1,118.4.61,31.37,31.37,0,0,1,124.56,0a41.86,41.86,0,0,1,5.69.4,17.44,17.44,0,0,1,5.26,1.55,10.36,10.36,0,0,1,3.89,3.2,9,9,0,0,1,1.51,5.44V30a38.81,38.81,0,0,0,.29,4.82,8.7,8.7,0,0,0,1,3.46H131.83a14.49,14.49,0,0,1-.47-1.76,15.18,15.18,0,0,1-.25-1.84,13.32,13.32,0,0,1-5.76,3.53,23.14,23.14,0,0,1-6.77,1,18.28,18.28,0,0,1-5-.65,11.36,11.36,0,0,1-4-2,9.37,9.37,0,0,1-2.7-3.46,11.68,11.68,0,0,1-1-5A10.85,10.85,0,0,1,107,22.86a9.33,9.33,0,0,1,2.88-3.28,12.91,12.91,0,0,1,4-1.84,43.39,43.39,0,0,1,4.57-1q2.3-.36,4.54-.58a27.22,27.22,0,0,0,4-.65,6.9,6.9,0,0,0,2.74-1.26,2.77,2.77,0,0,0,.94-2.41,5.43,5.43,0,0,0-.54-2.63,4,4,0,0,0-1.44-1.51A5.67,5.67,0,0,0,126.61,7a17.2,17.2,0,0,0-2.56-.18,7.76,7.76,0,0,0-4.75,1.3,5.78,5.78,0,0,0-2,4.32ZM130.68,20a4.57,4.57,0,0,1-1.62.9,16.6,16.6,0,0,1-2.09.54q-1.12.22-2.34.36t-2.45.36a18.48,18.48,0,0,0-2.27.58,6.73,6.73,0,0,0-1.94,1,4.62,4.62,0,0,0-1.33,1.55,5,5,0,0,0-.5,2.38,4.8,4.8,0,0,0,.5,2.3A3.86,3.86,0,0,0,118,31.43a5.77,5.77,0,0,0,2,.76,12.85,12.85,0,0,0,2.38.22,9,9,0,0,0,4.68-1A6.75,6.75,0,0,0,129.53,29a7.72,7.72,0,0,0,1-2.84,19.71,19.71,0,0,0,.18-2.3Z"/><path class="cls-2" d="M158.54,1V5.76h.14a11.24,11.24,0,0,1,4.75-4.39A14.58,14.58,0,0,1,169.77,0a16.13,16.13,0,0,1,7.56,1.66A15.63,15.63,0,0,1,182.59,6a18.57,18.57,0,0,1,3.1,6.37,28.31,28.31,0,0,1,1,7.6,25.58,25.58,0,0,1-1,7.2,18.34,18.34,0,0,1-3.06,6.12,15.15,15.15,0,0,1-5.11,4.25,15.39,15.39,0,0,1-7.16,1.58,14.5,14.5,0,0,1-6.37-1.4,12.05,12.05,0,0,1-4.79-4.14H159V51.26H148.82V1Zm13.28,29.52a8.2,8.2,0,0,0,2.74-2.63A10.84,10.84,0,0,0,176,24.12a22.33,22.33,0,0,0,.43-4.39,20.72,20.72,0,0,0-.47-4.39,11.7,11.7,0,0,0-1.55-3.85,8.64,8.64,0,0,0-2.77-2.74,7.75,7.75,0,0,0-4.14-1,7.89,7.89,0,0,0-4.21,1,8.4,8.4,0,0,0-2.74,2.7,11.21,11.21,0,0,0-1.48,3.82,22.7,22.7,0,0,0-.43,4.46,20.62,20.62,0,0,0,.47,4.39,11.33,11.33,0,0,0,1.51,3.78,8.72,8.72,0,0,0,11.16,2.63Z"/></g></g></svg>